<svg width="281.558" height="22.5" xmlns="http://www.w3.org/2000/svg" fill="none">

  <g>
    <title>Layer 1</title>
    <path fill="#95a5a6" fill-rule="evenodd" d="m14.335,16.1982l-0.7998,5.335l-13.5352,-6.8818l0.65039,-4.6407l15.47751,-6.873l-0.791,5.65136l-9.36034,3.70894l8.35844,3.7002z" id="&lt; WAICoder /&gt;"/>
    <path stroke="null" fill="#065ACC" fill-rule="evenodd" d="m56.51036,20.28701l1.29331,0.32787l9.20919,-10.54706l-3.32792,11.15297l4.56118,-0.32787l8.09966,-19.68801l-8.20962,0.32787l-7.62935,8.72244l-1.52399,0.45789l-4.93083,-8.19672l-7.65832,-1.57364l-6.58844,20.27804l6.23149,0l5.31002,-10.49724l5.16361,9.56345zm42.08951,-19.06622l-0.85956,19.65625l-5.5514,0.98361l0.58951,-0.46188l-8.32685,0l-4.05176,0.46188l0.02027,-2.95082l0.7549,-17.96026l8.79715,-1.04025l8.62774,1.31148zm-13.54179,3.88279l0.80215,12.08453l7.57603,0l1.25617,-12.08453l-9.63434,0zm29.34449,-4.21066l-3.14349,19.98412l-10.16601,-5.2459l7.00238,5.68929l-4.98226,-20.42751l11.28938,0zm44.97389,5.33691q1.04783,0 1.56674,0.86838q0.51991,0.86838 0.51991,1.94481l-1.72601,12.81763l-15.58322,0q-1.03881,0 -1.56774,-0.69656q-0.51891,-0.70551 -0.51891,-1.78194l1.72501,-13.15232l15.58422,0zm-9.01575,3.55492l-1.3734,8.52097l4.14724,0l1.40846,-8.52097l-4.18231,0zm27.84263,-11.04469l6.92009,0l-3.09941,23.12058l-15.58322,0q-1.03881,0 -1.56774,-0.69656q-0.51891,-0.70551 -0.51891,-1.78194l1.72501,-13.15232l11.07635,0l1.04783,-7.48976zm-5.74103,11.04469l-1.32932,8.52097l4.40269,0l1.29426,-8.52097l-4.36763,0zm33.68985,5.67155l-11.07635,0l-0.36063,2.84941l9.70195,0l1.73503,-1.41112l-1.04783,4.96605l-15.22259,0q-1.03881,0 -1.56774,-0.69656q-0.51891,-0.70551 -0.51891,-1.78194l1.72501,-13.15232l17.99643,0l-1.36438,9.22648zm-10.06358,-5.67155l-0.32557,2.10768l4.14624,0l0.36163,-2.10768l-4.18231,0zm22.6115,-3.55492l-0.6872,4.96605l4.86951,-4.96605l6.92009,0l-11.78959,10.66477l-0.6862,4.96605l-6.92009,0l2.01552,-14.59962l-0.72126,-1.0312l6.99923,0z" id="&lt; WAICoder /&gt;"/>
    <path fill="#2C3E50" fill-rule="evenodd" id="&lt; MojCoder /&gt;"/>
    <path fill="#95a5a6" fill-rule="evenodd" d="m115.887,22.5q-0.501,0 -0.94,-0.1758q-0.431,-0.1846 -0.738,-0.501q-0.299,-0.3252 -0.413,-0.7734q-0.106,-0.457 0.044,-0.958l2.408,-17.96485l21.779,0l-0.36,3.4541l-15.188,0l-1.731,13.46485l13.465,0l1.722,-1.3711l-0.676,4.8252l-19.372,0zm146.017,-22.5l-5.906,22.4648l-4.826,0l5.907,-22.4648l4.825,0zm3.562,21.5332l0.72,-5.6514l9.396,-3.7089l-8.315,-3.70903l0.721,-5.32617l13.57,6.873l-0.65,4.6407l-15.442,6.8818z" id="&lt; WAICoder /&gt;"/>
  </g>
</svg>